<?xml version="1.0" encoding="UTF-8"?>
<svg width="140px" height="43px" viewBox="0 0 140 43" version="1.1" xmlns="http://www.w3.org/2000/svg" xmlns:xlink="http://www.w3.org/1999/xlink">
    <title>Group</title>
    <defs>
        <path d="M41.6742857,1.74857143 L41.6742857,39.9714286 C41.6742857,40.6871429 41.0928571,41.27 40.3757143,41.27 L2.15285714,41.27 C1.43571429,41.27 0.854285714,40.6871429 0.854285714,39.9714286 L0.854285714,1.74857143 C0.854285714,1.03142857 1.43571429,0.45 2.15285714,0.45 L40.3757143,0.45 C41.0928571,0.45 41.6742857,1.03142857 41.6742857,1.74857143" id="path-1"></path>
    </defs>
    <g id="Symbols" stroke="none" stroke-width="1" fill="none" fill-rule="evenodd">
        <g id="3-Header-/Default" transform="translate(-30.000000, -66.000000)">
            <g id="Group" transform="translate(30.000000, 66.890000)">
                <path d="M41.6742857,1.74857143 L41.6742857,39.9714286 C41.6742857,40.6871429 41.0928571,41.27 40.3757143,41.27 L2.15285714,41.27 C1.43571429,41.27 0.854285714,40.6871429 0.854285714,39.9714286 L0.854285714,1.74857143 C0.854285714,1.03142857 1.43571429,0.45 2.15285714,0.45 L40.3757143,0.45 C41.0928571,0.45 41.6742857,1.03142857 41.6742857,1.74857143" id="Fill-11" fill="#E7792B"></path>
                <g id="Group-15">
                    <mask id="mask-2" fill="white">
                        <use xlink:href="#path-1"></use>
                    </mask>
                    <g id="Clip-13"></g>
                    <path d="M-3.22714286,39.6842857 L-1.15428571,38.4685714 C7.53142857,33.3742857 14.59,29.0985714 20.7428571,26.0628571 C27.1385714,22.9071429 35.9771429,19.2228571 42.8571429,18.3828571 L45.7571429,18.5614286 L45.7571429,39.9714286 C45.7571429,42.9428571 43.3471429,45.3514286 40.3757143,45.3514286 L2.15285714,45.3514286 C-0.818571429,45.3514286 -3.22714286,42.9428571 -3.22714286,39.9714286 L-3.22714286,39.6842857" id="Fill-12" fill="#FFFFFE" mask="url(#mask-2)"></path>
                    <path d="M-2.85857143,41.9357143 C6.39428571,37.6142857 14.0671429,33.9685714 20.8214286,31.3371429 C28.2771429,28.4314286 36.9757143,25.2328571 43.5242857,25.2342852 L45.7571429,25.2528571 L45.7571429,39.9714286 C45.7571429,42.9428571 43.3471429,45.3514286 40.3757143,45.3514286 L2.15285714,45.3514286 C-0.125714286,45.3514286 -2.07285714,43.9357143 -2.85857143,41.9357143" id="Fill-14" fill="#A93B24" mask="url(#mask-2)"></path>
                </g>
                <path d="M137.535714,5.85714286 L137.122857,11.9685714 L136.294286,11.9157143 L135.312857,8.22857143 C133.208571,6.19142857 131.037143,5.22428571 128.795714,5.33 C127.105714,5.4 125.675714,5.94571429 124.504286,6.96428571 C123.228571,8.08714286 122.607143,9.56285714 122.641429,11.3885714 C122.675714,13.3914286 123.59,14.8842857 125.382857,15.8671429 C125.692857,16.0428571 127.33,16.6228571 130.295714,17.6071429 C132.744286,18.4142857 134.57,19.31 135.778571,20.2928571 C138.122857,22.2257143 139.242857,24.9128571 139.138571,28.3542857 C139.035714,31.3042857 137.967143,33.6942857 135.932857,35.52 C133.898571,37.3114286 131.192857,38.1542857 127.812857,38.0485714 C124.331429,37.9428571 121.211429,36.9614286 118.452857,35.0985714 L118.865714,27.5114286 L119.797143,27.6171429 L121.142857,32.78 C122.865714,35.2742857 125.331429,36.5571429 128.538571,36.6271429 C130.468571,36.6614286 132.037143,36.0471429 133.242857,34.7828571 C134.45,33.5185714 135.14,31.7971429 135.312857,29.62 C135.518571,26.6685714 134.227143,24.3857143 131.434286,22.77 C130.744286,22.3485714 129.02,21.7157143 126.261429,20.8728571 C120.882857,19.1871429 118.367143,16.2185714 118.711429,11.9685714 C119.125714,7.05142857 122.624286,4.41714286 129.21,4.06571429 C130.691429,3.99571429 132.364286,4.17 134.227143,4.59285714 C135.881429,5.01428571 136.984286,5.43571429 137.535714,5.85714286 Z M97.6271429,35.6257143 C98.8685714,36.0471429 100.161429,36.2585714 101.507143,36.2585714 C103.85,36.2585714 105.747143,35.6257143 107.194286,34.36 C108.954286,32.8514286 109.798571,30.5857143 109.73,27.5642857 C109.66,22.6814286 106.627143,20.2414286 100.627143,20.2414286 C100.007143,20.2414286 99.3514286,20.2771429 98.6614286,20.3457143 L97.6271429,20.3985714 L97.6271429,35.6257143 Z M97.6271429,18.66 C98.5928571,18.7657143 99.4557143,18.8185714 100.212857,18.8185714 C105.385714,18.8185714 107.937143,16.3942857 107.867143,11.5471429 C107.798571,7.61285714 105.678571,5.64571429 101.507143,5.64571429 C100.782857,5.64571429 99.9385714,5.69857143 98.9728571,5.80428571 C98.0414286,5.91 97.5928571,5.96285714 97.6271429,5.96285714 L97.6271429,18.66 Z M89.5085714,4.43428571 C91.9914286,4.47 93.6628571,4.47 94.5242857,4.43428571 C95.5585714,4.43428571 96.8871429,4.39857143 98.5071429,4.32857143 C100.127143,4.22285714 101.437143,4.17 102.437143,4.17 C109.091429,4.17 112.348571,6.57714286 112.211429,11.3885714 C112.107143,15.4642857 109.574286,18.0457143 104.61,19.1342857 C107.505714,19.38 109.815714,20.2928571 111.538571,21.8742857 C113.435714,23.5957143 114.314286,25.8428571 114.177143,28.6185714 C114.038571,31.6385714 112.797143,33.94 110.452857,35.52 C108.247143,37.03 105.332857,37.6971429 101.712857,37.5214286 C97.7828571,37.3457143 93.6114286,37.2771429 89.1985714,37.3114286 L89.1985714,36.5742857 C89.9914286,36.3285714 91.4742857,35.82 93.6457143,35.0457143 L93.6457143,6.59428571 L89.5085714,5.17285714 L89.5085714,4.43428571 Z M66.0914286,35.31 C67.5742857,35.5557143 68.9528571,35.6785714 70.2285714,35.6785714 C78.5714286,35.6785714 82.6742857,30.4628571 82.5371429,20.03 C82.4,10.5814286 78.0885714,5.85714286 69.6071429,5.85714286 C68.5042857,5.85714286 67.3328571,5.92714286 66.0914286,6.06857143 L66.0914286,35.31 Z M57.7128571,4.43428571 C61.2985714,4.36428571 65.3157143,4.29285714 69.7628571,4.22285714 C74.5214286,4.11857143 78.3828571,5.12 81.3471429,7.22714286 C85.14,9.89714286 87.0714286,14.1985714 87.14,20.1357143 C87.2085714,26.8085714 85.1571429,31.6042857 80.9842857,34.5185714 C77.9171429,36.6271429 74.0728571,37.5914286 69.4528571,37.4171429 C67.5571429,37.3457143 63.5742857,37.3114286 57.5071429,37.3114286 L57.5071429,36.5742857 C58.3,36.3285714 59.7828571,35.82 61.9542857,35.0457143 L61.9542857,6.54142857 L57.7128571,5.17285714 L57.7128571,4.43428571 L57.7128571,4.43428571 Z" id="Fill-16" fill="#777776"></path>
            </g>
        </g>
    </g>
</svg>